<svg width="1600" height="900" viewBox="0 0 1600 900" fill="none" xmlns="http://www.w3.org/2000/svg">
  <rect width="1600" height="900" fill="#F3F3F0"/>
  <rect x="80" y="80" width="1440" height="740" stroke="#151515" stroke-opacity="0.14"/>
  <line x1="200" y1="170" x2="1420" y2="170" stroke="#151515" stroke-opacity="0.12"/>
  <line x1="200" y1="260" x2="1320" y2="260" stroke="#151515" stroke-opacity="0.12"/>
  <line x1="240" y1="350" x2="1420" y2="350" stroke="#151515" stroke-opacity="0.12"/>
  <line x1="180" y1="440" x2="1360" y2="440" stroke="#151515" stroke-opacity="0.12"/>
  <line x1="260" y1="530" x2="1420" y2="530" stroke="#151515" stroke-opacity="0.12"/>
  <line x1="200" y1="620" x2="1320" y2="620" stroke="#151515" stroke-opacity="0.12"/>
  <line x1="280" y1="710" x2="1420" y2="710" stroke="#151515" stroke-opacity="0.12"/>
  <line x1="300" y1="120" x2="300" y2="780" stroke="#151515" stroke-opacity="0.1"/>
  <line x1="460" y1="140" x2="460" y2="760" stroke="#151515" stroke-opacity="0.1"/>
  <line x1="620" y1="110" x2="620" y2="790" stroke="#151515" stroke-opacity="0.1"/>
  <line x1="780" y1="150" x2="780" y2="770" stroke="#151515" stroke-opacity="0.1"/>
  <line x1="940" y1="120" x2="940" y2="790" stroke="#151515" stroke-opacity="0.1"/>
  <line x1="1100" y1="160" x2="1100" y2="760" stroke="#151515" stroke-opacity="0.1"/>
  <line x1="1260" y1="120" x2="1260" y2="790" stroke="#151515" stroke-opacity="0.1"/>
  <path d="M120 120C280 200 390 320 450 470C510 620 630 700 860 760" stroke="#151515" stroke-width="3"/>
  <circle cx="850" cy="470" r="10" fill="#151515"/>
  <circle cx="850" cy="470" r="38" stroke="#151515" stroke-opacity="0.24"/>
  <line x1="888" y1="470" x2="1090" y2="470" stroke="#151515"/>
  <text x="1118" y="454" fill="#151515" font-family="Helvetica Neue, Arial, sans-serif" font-size="22" letter-spacing="2.4">BEIRUT</text>
  <text x="1118" y="488" fill="#6F6F69" font-family="Helvetica Neue, Arial, sans-serif" font-size="18" letter-spacing="1.2">LEBANON</text>
  <text x="200" y="792" fill="#6F6F69" font-family="Helvetica Neue, Arial, sans-serif" font-size="18" letter-spacing="1.6">33.8938 N / 35.5018 E</text>
</svg>
